<?xml version="1.0" encoding="UTF-8"?>
<svg id="logo" xmlns="http://www.w3.org/2000/svg" version="1.1" viewBox="0 0 476.3 476.3">
  <defs>
    <style>
      .cls-1 {
        fill: #005773;
      }

      .cls-1, .cls-2 {
        stroke-width: 0px;
      }

      .cls-2 {
        fill: #fff;
      }
    </style>
  </defs>
  <circle class="cls-1" cx="238.1" cy="238.1" r="170.1"/>
  <g>
    <g>
      <path class="cls-2" d="M266,245.8c-9.3-.5-18.6-.7-27.8-.7s-18.5.3-27.8.7c-2.6.1-5.1.3-7.7.4.4-5.6.8-11.2,1-16.8.3-6,.5-11.9.5-17.9s.1-5.2.1-7.8,0-5.2-.1-7.8c-.1-5.9-.3-11.9-.5-17.9-.3-5.6-.6-11.2-1-16.8-.5-6-1-12-1.7-18-6.1-.4-12.1-.9-18.2-1.6.7,6,1.3,12.1,1.8,18.1,1.2,14.7,1.8,29.4,1.8,43.9s-.6,29.3-1.8,43.9c-.2,2.1-.4,4.2-.6,6.3-.4,3.9-.8,7.9-1.2,11.8,6-.6,12.1-1.1,18.2-1.6,12.4-.9,24.9-1.3,37.2-1.3s19.6.3,29.5.8c-.6-5.7-1.1-11.4-1.6-17v-.7h-.1Z"/>
      <path class="cls-2" d="M289.9,203.7c0-14.6.6-29.3,1.8-43.9.2-2.1.4-4.2.6-6.3.4-3.9.8-7.9,1.2-11.8-6,.6-12.1,1.1-18.2,1.6-12.4.9-24.9,1.3-37.2,1.3s-19.6-.3-29.5-.8c.6,5.7,1.2,11.4,1.6,17,0,.3,0,.7.1,1,9.3.5,18.6.7,27.8.7s18.5-.3,27.8-.7c2.6-.1,5.1-.3,7.7-.4-.4,5.6-.8,11.2-1,16.8h-61.4c.3,5.9.5,11.9.5,17.8h0c0,.1,16.1.1,16.1.1h44.3c0,2.6-.1,5.2-.1,7.8s0,5.2.1,7.8h-60.3c-.1,5.9-.3,11.9-.5,17.9h61.4c.3,5.6.6,11.2,1,16.8.5,6,1,12,1.7,18,6.1.4,12.1.9,18.2,1.6-.7-6-1.3-12.1-1.8-18.1-1.3-14.9-1.9-29.6-1.9-44.2h0Z"/>
    </g>
    <g>
      <path class="cls-2" d="M276.5,318.9c-.6,1.2-1.3,2.3-2.3,3.1-1,.9-2.1,1.5-3.4,2s-2.7.7-4.1.7-2.8-.2-4.1-.7c-1.3-.5-2.4-1.1-3.3-2-1-.9-1.7-1.9-2.3-3.1-.5-1.2-.8-2.6-.8-4.1v-18.4h6.8v18.2c0,1.3.3,2.3,1,3s1.5,1.1,2.7,1.1,2.1-.4,2.7-1.1c.7-.7,1-1.7,1-3v-18.2h6.8v18.4c0,1.5-.2,2.9-.7,4.1h0Z"/>
      <path class="cls-2" d="M160.5,296.4h-7.4l-6.3,12.3-6.3-12.3h-7.4c.7,4.5,1,9.2,1,13.9s-.4,9.4-1,13.9h7.5v-13.3l3.9,6.9h4.4l3.9-6.9v13.3h7.5c-.7-4.5-1-9.2-1-13.9.2-4.7.6-9.4,1.2-13.9h0Z"/>
      <path class="cls-2" d="M180.6,296.4h-8.6c.7,4.5,1,9.2,1,13.9s-.4,9.4-1,13.9h8.6c-.7-4.5-1-9.2-1-13.9s.4-9.4,1-13.9Z"/>
      <path class="cls-2" d="M193.2,310.3c0,4.7-.4,9.4-1,13.9h19.6v-6.1h-12.1v-4.9h10.3v-6.1h-10.3v-4.7h12.1v-6.1h-19.6c.6,4.6,1,9.3,1,14h0Z"/>
      <path class="cls-2" d="M241.6,311.6c.5-.4,1-1,1.4-1.6s.8-1.3,1.1-2.1.4-1.6.4-2.6-.2-2.3-.6-3.3c-.4-1.1-1-2-1.8-2.9-.8-.8-1.8-1.5-3-2s-2.5-.8-4.1-.8h-11.7c.7,4.5,1,9.2,1,13.9s-.4,9.4-1,13.9h7.5v-10.4h2.3l4.9,10.4h7.9l-6-11.6c.6,0,1.1-.5,1.7-.9h0ZM236.9,307.3c-.5.6-1.3.9-2.2.9h-3.9v-5.6h3.9c.9,0,1.7.3,2.2.9s.8,1.2.8,2-.3,1.2-.8,1.8h0Z"/>
      <path class="cls-2" d="M311.9,296.4h-7.5v14l-8.9-14h-6.7c.7,4.5,1,9.2,1,13.9s-.4,9.4-1,13.9h7.5v-14l8.9,14h6.7c-.7-4.5-1-9.2-1-13.9s.4-9.4,1-13.9Z"/>
      <path class="cls-2" d="M343.1,302.5v-6.1h-19.6c.7,4.5,1,9.2,1,13.9s-.4,9.4-1,13.9h19.6v-6.1h-12.1v-4.9h10.3v-6.1h-10.3v-4.7h12.1Z"/>
    </g>
  </g>
</svg>