<?xml version="1.0" encoding="utf-8"?>
<!-- Generator: Adobe Illustrator 20.1.0, SVG Export Plug-In . SVG Version: 6.00 Build 0)  -->
<svg version="1.1" id="レイヤー_1" xmlns="http://www.w3.org/2000/svg" xmlns:xlink="http://www.w3.org/1999/xlink" x="0px"
	 y="0px" viewBox="0 0 841.9 595.3" style="enable-background:new 0 0 841.9 595.3;" xml:space="preserve">
<style type="text/css">
	.st0{fill:#005773;}
	.st1{fill:#FFFFFF;}
</style>
<circle class="st0" cx="421.7" cy="297.9" r="170.1"/>
<g>
	<g>
		<path class="st1" d="M449.6,305.6c-9.3-0.5-18.6-0.7-27.8-0.7c-9.2,0-18.5,0.3-27.8,0.7c-2.6,0.1-5.1,0.3-7.7,0.4
			c0.4-5.6,0.8-11.2,1-16.8c0.3-6,0.5-11.9,0.5-17.9c0-2.6,0.1-5.2,0.1-7.8c0-2.6,0-5.2-0.1-7.8c-0.1-5.9-0.3-11.9-0.5-17.9
			c-0.3-5.6-0.6-11.2-1-16.8c-0.5-6-1-12-1.7-18c-6.1-0.4-12.1-0.9-18.2-1.6c0.7,6,1.3,12.1,1.8,18.1c1.2,14.7,1.8,29.4,1.8,43.9
			c0,14.6-0.6,29.3-1.8,43.9c-0.2,2.1-0.4,4.2-0.6,6.3c-0.4,3.9-0.8,7.9-1.2,11.8c6-0.6,12.1-1.1,18.2-1.6
			c12.4-0.9,24.9-1.3,37.2-1.3c9.8,0,19.6,0.3,29.5,0.8c-0.6-5.7-1.1-11.4-1.6-17C449.6,306.2,449.6,305.9,449.6,305.6z"/>
		<path class="st1" d="M473.5,263.5c0-14.6,0.6-29.3,1.8-43.9c0.2-2.1,0.4-4.2,0.6-6.3c0.4-3.9,0.8-7.9,1.2-11.8
			c-6,0.6-12.1,1.1-18.2,1.6c-12.4,0.9-24.9,1.3-37.2,1.3c-9.8,0-19.6-0.3-29.5-0.8c0.6,5.7,1.2,11.4,1.6,17c0,0.3,0,0.7,0.1,1
			c9.3,0.5,18.6,0.7,27.8,0.7c9.2,0,18.5-0.3,27.8-0.7c2.6-0.1,5.1-0.3,7.7-0.4c-0.4,5.6-0.8,11.2-1,16.8h-7.7h-37.4h-16.3
			c0.3,5.9,0.5,11.9,0.5,17.8c0,0,0,0.1,0,0.1h16.1H448h7.7c0,2.6-0.1,5.2-0.1,7.8c0,2.6,0,5.2,0.1,7.8H448h-52.6c0,0,0,0.1,0,0.1
			c-0.1,5.8-0.3,11.8-0.5,17.8h53.7h7.7c0.3,5.6,0.6,11.2,1,16.8c0.5,6,1,12,1.7,18c6.1,0.4,12.1,0.9,18.2,1.6
			c-0.7-6-1.3-12.1-1.8-18.1C474.1,292.8,473.5,278.1,473.5,263.5z"/>
	</g>
	<g>
		<path class="st1" d="M460.1,378.7c-0.6,1.2-1.3,2.3-2.3,3.1c-1,0.9-2.1,1.5-3.4,2c-1.3,0.5-2.7,0.7-4.1,0.7
			c-1.5,0-2.8-0.2-4.1-0.7c-1.3-0.5-2.4-1.1-3.3-2c-1-0.9-1.7-1.9-2.3-3.1c-0.5-1.2-0.8-2.6-0.8-4.1v-18.4h6.8v18.2
			c0,1.3,0.3,2.3,1,3c0.7,0.7,1.5,1.1,2.7,1.1c1.1,0,2.1-0.4,2.7-1.1c0.7-0.7,1-1.7,1-3v-18.2h6.8v18.4
			C460.9,376.1,460.6,377.5,460.1,378.7z"/>
		<path class="st1" d="M344.1,356.2h-7.4l-6.3,12.3l-6.3-12.3h-7.4c0.7,4.5,1,9.2,1,13.9c0,4.7-0.4,9.4-1,13.9h7.5v-13.3l3.9,6.9
			h4.4l3.9-6.9V384h7.5c-0.7-4.5-1-9.2-1-13.9C343.1,365.4,343.5,360.7,344.1,356.2z"/>
		<path class="st1" d="M364.2,356.2h-8.6c0.7,4.5,1,9.2,1,13.9c0,4.7-0.4,9.4-1,13.9h8.6c-0.7-4.5-1-9.2-1-13.9
			C363.2,365.4,363.6,360.7,364.2,356.2z"/>
		<path class="st1" d="M376.8,370.1c0,4.7-0.4,9.4-1,13.9h19.6v-6.1h-12.1V373h10.3v-6.1h-10.3v-4.7h12.1v-6.1h-19.6
			C376.4,360.7,376.8,365.4,376.8,370.1z"/>
		<path class="st1" d="M425.2,371.4c0.5-0.4,1-1,1.4-1.6c0.4-0.6,0.8-1.3,1.1-2.1s0.4-1.6,0.4-2.6c0-1.1-0.2-2.3-0.6-3.3
			c-0.4-1.1-1-2-1.8-2.9c-0.8-0.8-1.8-1.5-3-2c-1.2-0.5-2.5-0.8-4.1-0.8h-11.7c0.7,4.5,1,9.2,1,13.9c0,4.7-0.4,9.4-1,13.9h7.5v-10.4
			h2.3l4.9,10.4h7.9l-6-11.6C424.1,372.2,424.6,371.8,425.2,371.4z M420.5,367.1c-0.5,0.6-1.3,0.9-2.2,0.9h-3.9v-5.6h3.9
			c0.9,0,1.7,0.3,2.2,0.9c0.5,0.6,0.8,1.2,0.8,2C421.2,365.8,421,366.5,420.5,367.1z"/>
		<path class="st1" d="M495.5,356.2H488v14l-8.9-14h-6.7c0.7,4.5,1,9.2,1,13.9c0,4.7-0.4,9.4-1,13.9h7.5v-14l8.9,14h6.7
			c-0.7-4.5-1-9.2-1-13.9C494.5,365.4,494.9,360.7,495.5,356.2z"/>
		<path class="st1" d="M526.7,362.3v-6.1h-19.6c0.7,4.5,1,9.2,1,13.9c0,4.7-0.4,9.4-1,13.9h19.6v-6.1h-12.1V373h10.3v-6.1h-10.3
			v-4.7H526.7z"/>
	</g>
</g>
</svg>
