<?xml version="1.0" encoding="UTF-8"?>
<svg id="logo" xmlns="http://www.w3.org/2000/svg" version="1.1" viewBox="0 0 566.5 513">
  <defs>
    <style>
      .cls-1 {
        fill: #005773;
        stroke-width: 0px;
      }
    </style>
  </defs>
  <g>
    <path class="cls-1" d="M338.9,281.6c-18.6-.9-37.2-1.5-55.7-1.5s-37.1.5-55.7,1.5c-5.1.3-10.3.5-15.4.9.9-11.2,1.6-22.4,2.1-33.6.6-11.9.9-23.9,1.1-35.8.1-5.2.1-10.4.1-15.6s0-10.4-.1-15.6c-.2-11.9-.5-23.8-1.1-35.8-.5-11.2-1.2-22.4-2.1-33.6-.9-12-2.1-24.1-3.4-36.1-12.1-.8-24.2-1.9-36.3-3.1,1.4,12.1,2.6,24.2,3.6,36.3,2.4,29.4,3.7,58.8,3.7,87.9s-1.2,58.6-3.7,87.9c-.3,4.2-.8,8.4-1.1,12.7-.7,7.9-1.5,15.8-2.4,23.6,12.1-1.3,24.2-2.3,36.3-3.1,24.9-1.7,49.8-2.6,74.5-2.6s39.2.6,59,1.7c-1.2-11.5-2.3-22.9-3.1-33.9-.2-.8-.2-1.5-.3-2.2h0Z"/>
    <path class="cls-1" d="M386.8,197.5c0-29.1,1.2-58.6,3.7-87.9.3-4.2.8-8.4,1.1-12.7.7-7.9,1.5-15.8,2.4-23.6-12.1,1.3-24.2,2.3-36.3,3.1-24.9,1.7-49.8,2.6-74.5,2.6s-39.2-.6-59-1.7c1.2,11.5,2.3,22.9,3.2,33.9.1.7.1,1.4.1,2.1,18.6.9,37.2,1.5,55.7,1.5s37.1-.5,55.7-1.5c5.1-.3,10.3-.5,15.4-.9-.9,11.2-1.6,22.4-2.1,33.6h-122.7c.5,11.9.9,23.9,1.1,35.5v.2h120.5c-.1,5.2-.1,10.4-.1,15.6s0,10.4.1,15.6h-120.4v.2c-.2,11.7-.5,23.6-1.1,35.5h122.6c.5,11.2,1.2,22.4,2.1,33.6.9,12,2.1,24.1,3.4,36.1,12.1.8,24.2,1.9,36.3,3.1-1.4-12.1-2.6-24.2-3.6-36.3-2.3-29-3.6-58.5-3.6-87.6h0Z"/>
  </g>
  <g>
    <path class="cls-1" d="M359.9,428c-1.1,2.5-2.6,4.5-4.6,6.3-1.9,1.7-4.2,3.1-6.8,4-2.6.9-5.3,1.4-8.2,1.4s-5.6-.5-8.2-1.4c-2.5-.9-4.8-2.3-6.7-4-1.9-1.7-3.4-3.8-4.5-6.3s-1.6-5.2-1.6-8.3v-36.8h13.8v36.5c0,2.6.7,4.6,2,6s3.1,2.1,5.4,2.1,4.1-.7,5.5-2.1,2-3.4,2-6v-36.5h13.7v36.8c-.1,3.1-.6,5.8-1.8,8.3h0Z"/>
    <path class="cls-1" d="M128,382.9h-14.8l-12.5,24.6-12.5-24.6h-14.9c1.3,9.1,2,18.4,2,27.8s-.7,18.7-2,27.8h15.1v-26.7l7.9,13.8h8.8l7.9-13.8v26.7h15.1c-1.3-9.1-2-18.4-2-27.8,0-9.4.6-18.7,1.9-27.8Z"/>
    <path class="cls-1" d="M168.2,382.9h-17.1c1.3,9.1,2,18.4,2,27.8s-.7,18.7-2,27.8h17.1c-1.3-9.1-2-18.4-2-27.8s.7-18.7,2-27.8Z"/>
    <path class="cls-1" d="M193.3,410.8c0,9.5-.7,18.7-2,27.8h39.2v-12.2h-24.2v-9.8h20.6v-12.2h-20.6v-9.3h24.2v-12.2h-39.2c1.3,9.1,2,18.4,2,27.9h0Z"/>
    <path class="cls-1" d="M290.1,413.3c1.1-.9,2-1.9,2.9-3.1s1.6-2.6,2.1-4.1c.5-1.6.8-3.3.8-5.2s-.4-4.5-1.3-6.6c-.8-2.1-2-4-3.6-5.7s-3.6-3-5.9-4-5.1-1.5-8.2-1.5h-23.4c1.3,9.1,2,18.4,2,27.8s-.7,18.7-2,27.8h15.1v-20.7h4.6l9.9,20.7h15.9l-12-23.2c1-.6,2.1-1.3,3.1-2.2h0ZM280.7,404.7c-1,1.1-2.5,1.7-4.4,1.7h-7.7v-11.3h7.7c1.9,0,3.3.6,4.4,1.7,1,1.1,1.6,2.5,1.6,3.9s-.5,2.8-1.6,4h0Z"/>
    <path class="cls-1" d="M430.9,382.9h-15.1v28l-17.8-28h-13.3c1.3,9.1,2,18.4,2,27.8s-.7,18.7-2,27.8h15.1v-28l17.8,28h13.3c-1.3-9.1-2-18.4-2-27.8s.7-18.7,2-27.8Z"/>
    <path class="cls-1" d="M493.2,395.1v-12.2h-39.2c1.3,9.1,2,18.4,2,27.8s-.7,18.7-2,27.8h39.2v-12.2h-24.1v-9.8h20.6v-12.2h-20.6v-9.3h24.1Z"/>
  </g>
</svg>