<?xml version="1.0" encoding="UTF-8"?>
<svg id="logo" xmlns="http://www.w3.org/2000/svg" version="1.1" viewBox="0 0 285.2 92.5">
  <defs>
    <style>
      .cls-1 {
        fill: #005773;
      }
    </style>
  </defs>
  <g>
    <path class="cls-1" d="M59.4,65.4c-4.2-.2-8.5-.3-12.7-.3s-8.5,0-12.7.3c-1.2,0-2.3,0-3.5.2.2-2.6.4-5.1.5-7.7.1-2.7.2-5.4.3-8.2v-7.2c0-2.7-.1-5.4-.3-8.2-.1-2.6-.3-5.1-.5-7.7-.2-2.7-.5-5.5-.8-8.2-2.8-.2-5.5-.4-8.3-.7.3,2.8.6,5.5.8,8.3.6,6.7.8,13.4.8,20.1s-.3,13.4-.8,20.1c-.1,1-.2,1.9-.3,2.9-.2,1.8-.4,3.6-.6,5.4,2.8-.3,5.5-.5,8.3-.7,5.7-.4,11.4-.6,17-.6s9,0,13.5.4c-.3-2.6-.5-5.2-.7-7.7v-.5"/>
    <path class="cls-1" d="M70.3,46.2c0-6.6.3-13.4.8-20.1,0-1,.2-1.9.3-2.9.2-1.8.3-3.6.6-5.4-2.8.3-5.5.5-8.3.7-5.7.4-11.4.6-17,.6s-9-.1-13.5-.4c.3,2.6.5,5.2.7,7.7v.5c4.2.2,8.5.3,12.7.3s8.5-.1,12.7-.3c1.2-.1,2.3-.1,3.5-.2-.2,2.6-.4,5.1-.5,7.7h-27.9c0,2.7.2,5.4.2,8.1h27.6v7.2h-27.5c0,2.8,0,5.5-.2,8.2h28c0,2.6.3,5.1.5,7.7.2,2.7.5,5.5.8,8.2,2.8.2,5.5.4,8.3.7-.3-2.8-.6-5.5-.8-8.3-.7-6.7-1-13.4-1-20.1"/>
    <path class="cls-1" d="M208.7,52.7c-.5,1-1.1,1.8-1.8,2.5-.8.7-1.7,1.2-2.7,1.6-1,.4-2.1.6-3.3.6s-2.3-.2-3.3-.6c-1-.4-1.9-.9-2.7-1.6-.8-.7-1.4-1.5-1.8-2.5-.4-1-.7-2.1-.7-3.3v-14.9h5.5v14.7c0,1,.3,1.9.8,2.4.5.6,1.2.8,2.2.8s1.7-.3,2.2-.8c.5-.6.8-1.4.8-2.4v-14.7h5.5v14.8c0,1.3-.2,2.4-.7,3.4"/>
    <path class="cls-1" d="M115.4,34.5h-6l-5,9.9-5-9.9h-6c.5,3.7.8,7.4.8,11.2s-.3,7.5-.8,11.2h6.1v-10.7l3.2,5.5h3.5l3.2-5.5v10.7h6.1c-.5-3.7-.8-7.4-.8-11.2-.2-3.8,0-7.5.7-11.2"/>
    <path class="cls-1" d="M131.5,34.5h-6.9c.5,3.7.8,7.4.8,11.2s-.3,7.5-.8,11.2h6.9c-.5-3.7-.8-7.4-.8-11.2s.3-7.5.8-11.2"/>
    <path class="cls-1" d="M141.6,45.7c0,3.8-.3,7.5-.8,11.2h15.8v-4.9h-9.7v-3.9h8.3v-4.9h-8.3v-3.7h9.7v-4.9h-15.8c.5,3.6.8,7.3.8,11.1"/>
    <path class="cls-1" d="M180.6,46.8c.4-.4.8-.8,1.2-1.3.3-.5.6-1,.9-1.7.2-.6.3-1.3.3-2.1s-.2-1.8-.5-2.7-.8-1.6-1.5-2.3c-.6-.7-1.4-1.2-2.4-1.6s-2.1-.6-3.3-.6h-9.4c.5,3.7.8,7.4.8,11.2s-.3,7.5-.8,11.2h6.1v-8.3h1.9l4,8.3h6.4l-4.8-9.3c.2-.2.7-.5,1.1-.8M176.8,43.3c-.4.5-1,.7-1.8.7h-3.1v-4.5h3.1c.8,0,1.3.2,1.8.7.4.5.6,1,.6,1.6s-.2,1-.6,1.5"/>
    <path class="cls-1" d="M237.3,34.5h-6.1v11.3l-7.2-11.3h-5.4c.5,3.7.8,7.4.8,11.2s-.3,7.5-.8,11.2h6.1v-11.2l7.2,11.3h5.4c-.5-3.7-.8-7.4-.8-11.2s.2-7.6.8-11.3"/>
    <path class="cls-1" d="M262.4,39.5v-4.9h-15.8c.5,3.7.8,7.4.8,11.2s-.3,7.5-.8,11.2h15.8v-4.9h-9.7v-3.9h8.3v-4.9h-8.3v-3.7h9.7Z"/>
  </g>
</svg>