<?xml version="1.0" encoding="utf-8"?>
<!-- Generator: Adobe Illustrator 20.1.0, SVG Export Plug-In . SVG Version: 6.00 Build 0)  -->
<svg version="1.1" id="レイヤー_1" xmlns="http://www.w3.org/2000/svg" xmlns:xlink="http://www.w3.org/1999/xlink" x="0px"
	 y="0px" viewBox="0 0 841.9 595.3" style="enable-background:new 0 0 841.9 595.3;" xml:space="preserve">
<style type="text/css">
	.st0{fill:#005773;}
</style>
<g>
	<g>
		<path class="st0" d="M184.6,352.5c-12.2-0.6-24.3-1-36.4-1c-12.1,0-24.3,0.3-36.4,1c-3.4,0.2-6.7,0.4-10.1,0.6
			c0.6-7.3,1-14.7,1.4-22c0.4-7.8,0.6-15.6,0.7-23.4c0-3.4,0.1-6.8,0.1-10.2c0-3.4,0-6.8-0.1-10.2c-0.1-7.8-0.4-15.6-0.7-23.4
			c-0.3-7.3-0.8-14.7-1.4-22c-0.6-7.9-1.3-15.8-2.2-23.6c-7.9-0.6-15.9-1.2-23.8-2.1c0.9,7.9,1.7,15.8,2.4,23.7
			c1.6,19.2,2.4,38.5,2.4,57.5c0,19.1-0.8,38.3-2.4,57.5c-0.2,2.8-0.5,5.5-0.8,8.3c-0.5,5.2-1,10.3-1.6,15.5
			c7.9-0.8,15.8-1.5,23.8-2.1c16.3-1.1,32.6-1.7,48.7-1.7c12.8,0,25.7,0.4,38.6,1.1c-0.8-7.5-1.5-15-2.1-22.2
			C184.7,353.4,184.7,352.9,184.6,352.5z"/>
		<path class="st0" d="M216,297.4c0-19.1,0.8-38.3,2.4-57.5c0.2-2.8,0.5-5.5,0.8-8.3c0.5-5.2,1-10.3,1.6-15.5
			c-7.9,0.8-15.8,1.5-23.8,2.1c-16.3,1.1-32.6,1.7-48.7,1.7c-12.8,0-25.7-0.4-38.6-1.1c0.8,7.5,1.5,15,2.1,22.2
			c0,0.4,0.1,0.9,0.1,1.3c12.2,0.6,24.3,1,36.4,1c12.1,0,24.3-0.3,36.4-1c3.4-0.2,6.7-0.4,10.1-0.6c-0.6,7.3-1,14.7-1.4,22h-10
			h-48.9h-21.3c0.4,7.8,0.6,15.6,0.7,23.3c0,0,0,0.1,0,0.1h21.1h47.8h10c0,3.4-0.1,6.8-0.1,10.2c0,3.4,0,6.8,0.1,10.2h-10h-68.8
			c0,0,0,0.1,0,0.1c-0.1,7.6-0.4,15.5-0.7,23.3h70.3h10c0.3,7.3,0.8,14.7,1.4,22c0.6,7.9,1.3,15.8,2.2,23.6
			c7.9,0.6,15.9,1.2,23.8,2.1c-0.9-7.9-1.7-15.8-2.4-23.7C216.8,335.7,216,316.5,216,297.4z"/>
	</g>
	<g>
		<path class="st0" d="M612.9,325.6c-1.3,2.8-3.1,5.3-5.3,7.3c-2.2,2-4.8,3.6-7.8,4.7c-3,1.1-6.1,1.6-9.4,1.6
			c-3.4,0-6.5-0.5-9.4-1.6c-2.9-1.1-5.5-2.6-7.7-4.7c-2.2-2-4-4.4-5.2-7.3c-1.3-2.8-1.9-6-1.9-9.6v-42.5h15.8v42.1
			c0,3,0.8,5.3,2.3,7c1.5,1.6,3.6,2.4,6.2,2.4c2.6,0,4.8-0.8,6.3-2.4c1.6-1.6,2.3-3.9,2.3-7v-42.1h15.8v42.5
			C614.9,319.6,614.2,322.8,612.9,325.6z"/>
		<path class="st0" d="M345.2,273.6h-17.1L313.6,302l-14.4-28.3h-17.1c1.5,10.5,2.4,21.2,2.4,32.1c0,10.9-0.8,21.6-2.4,32.1h17.4
			v-30.8l9.1,15.9h10.1l9.1-15.9v30.8h17.4c-1.5-10.5-2.4-21.2-2.4-32.1C342.9,294.8,343.7,284.1,345.2,273.6z"/>
		<path class="st0" d="M391.6,273.6h-19.8c1.5,10.5,2.4,21.2,2.4,32.1c0,10.9-0.8,21.6-2.4,32.1h19.8c-1.5-10.5-2.4-21.2-2.4-32.1
			C389.2,294.8,390,284.1,391.6,273.6z"/>
		<path class="st0" d="M420.5,305.8c0,10.9-0.8,21.6-2.4,32.1h45.3v-14.1h-27.9v-11.3h23.8v-14.1h-23.8v-10.7h27.9v-14.1h-45.3
			C419.7,284.1,420.5,294.8,420.5,305.8z"/>
		<path class="st0" d="M532.4,308.6c1.2-1,2.3-2.2,3.3-3.6c1-1.4,1.8-3,2.4-4.8c0.6-1.8,0.9-3.8,0.9-6c0-2.6-0.5-5.2-1.4-7.7
			c-1-2.5-2.4-4.7-4.2-6.6c-1.8-1.9-4.1-3.5-6.9-4.6c-2.7-1.2-5.9-1.8-9.4-1.8h-27.1c1.5,10.5,2.4,21.2,2.4,32.1
			c0,10.9-0.8,21.6-2.4,32.1h17.4V314h5.3l11.4,23.9h18.3l-13.9-26.8C529.9,310.5,531.1,309.7,532.4,308.6z M521.5,298.7
			c-1.2,1.3-2.9,2-5.1,2h-8.9v-13h8.9c2.2,0,3.8,0.7,5.1,2c1.2,1.3,1.8,2.8,1.8,4.5C523.3,295.9,522.7,297.4,521.5,298.7z"/>
		<path class="st0" d="M694.9,273.6h-17.4v32.3l-20.6-32.3h-15.4c1.5,10.5,2.4,21.2,2.4,32.1c0,10.9-0.8,21.6-2.4,32.1h17.4v-32.3
			l20.6,32.3h15.4c-1.5-10.5-2.4-21.2-2.4-32.1C692.5,294.8,693.4,284.1,694.9,273.6z"/>
		<path class="st0" d="M766.8,287.7v-14.1h-45.3c1.5,10.5,2.4,21.2,2.4,32.1c0,10.9-0.8,21.6-2.4,32.1h45.3v-14.1h-27.9v-11.3h23.8
			v-14.1h-23.8v-10.7H766.8z"/>
	</g>
</g>
</svg>
