<?xml version="1.0" encoding="utf-8"?>
<!-- Generator: Adobe Illustrator 20.1.0, SVG Export Plug-In . SVG Version: 6.00 Build 0)  -->
<svg version="1.1" id="レイヤー_1" xmlns="http://www.w3.org/2000/svg" xmlns:xlink="http://www.w3.org/1999/xlink" x="0px"
	 y="0px" viewBox="0 0 595.3 841.9" style="enable-background:new 0 0 595.3 841.9;" xml:space="preserve">
<style type="text/css">
	.st0{fill:#005773;}
</style>
<g>
	<g>
		<path class="st0" d="M353.8,445.9c-18.6-0.9-37.2-1.5-55.7-1.5c-18.5,0-37.1,0.5-55.7,1.5c-5.1,0.3-10.3,0.5-15.4,0.9
			c0.9-11.2,1.6-22.4,2.1-33.6c0.6-11.9,0.9-23.9,1.1-35.8c0.1-5.2,0.1-10.4,0.1-15.6c0-5.2,0-10.4-0.1-15.6
			c-0.2-11.9-0.5-23.8-1.1-35.8c-0.5-11.2-1.2-22.4-2.1-33.6c-0.9-12-2.1-24.1-3.4-36.1c-12.1-0.8-24.2-1.9-36.3-3.1
			c1.4,12.1,2.6,24.2,3.6,36.3c2.4,29.4,3.7,58.8,3.7,87.9c0,29.1-1.2,58.6-3.7,87.9c-0.3,4.2-0.8,8.4-1.1,12.7
			c-0.7,7.9-1.5,15.8-2.4,23.6c12.1-1.3,24.2-2.3,36.3-3.1c24.9-1.7,49.8-2.6,74.5-2.6c19.6,0,39.2,0.6,59,1.7
			c-1.2-11.5-2.3-22.9-3.1-33.9C353.9,447.3,353.9,446.6,353.8,445.9z"/>
		<path class="st0" d="M401.7,361.8c0-29.1,1.2-58.6,3.7-87.9c0.3-4.2,0.8-8.4,1.1-12.7c0.7-7.9,1.5-15.8,2.4-23.6
			c-12.1,1.3-24.2,2.3-36.3,3.1c-24.9,1.7-49.8,2.6-74.5,2.6c-19.6,0-39.2-0.6-59-1.7c1.2,11.5,2.3,22.9,3.2,33.9
			c0.1,0.7,0.1,1.4,0.1,2.1c18.6,0.9,37.2,1.5,55.7,1.5c18.5,0,37.1-0.5,55.7-1.5c5.1-0.3,10.3-0.5,15.4-0.9
			c-0.9,11.2-1.6,22.4-2.1,33.6h-15.3h-74.8h-32.6c0.5,11.9,0.9,23.9,1.1,35.5c0,0.1,0,0.1,0,0.2h32.2h73h15.3
			c-0.1,5.2-0.1,10.4-0.1,15.6c0,5.2,0,10.4,0.1,15.6h-15.3H245.6c0,0.1,0,0.1,0,0.2c-0.2,11.7-0.5,23.6-1.1,35.5h107.3h15.3
			c0.5,11.2,1.2,22.4,2.1,33.6c0.9,12,2.1,24.1,3.4,36.1c12.1,0.8,24.2,1.9,36.3,3.1c-1.4-12.1-2.6-24.2-3.6-36.3
			C403,420.4,401.7,390.9,401.7,361.8z"/>
	</g>
	<g>
		<path class="st0" d="M374.8,592.3c-1.1,2.5-2.6,4.5-4.6,6.3c-1.9,1.7-4.2,3.1-6.8,4c-2.6,0.9-5.3,1.4-8.2,1.4
			c-2.9,0-5.6-0.5-8.2-1.4c-2.5-0.9-4.8-2.3-6.7-4c-1.9-1.7-3.4-3.8-4.5-6.3c-1.1-2.5-1.6-5.2-1.6-8.3v-36.8H348v36.5
			c0,2.6,0.7,4.6,2,6c1.3,1.4,3.1,2.1,5.4,2.1c2.3,0,4.1-0.7,5.5-2.1c1.4-1.4,2-3.4,2-6v-36.5h13.7V584
			C376.5,587.1,376,589.8,374.8,592.3z"/>
		<path class="st0" d="M142.9,547.2h-14.8l-12.5,24.6l-12.5-24.6H88.2c1.3,9.1,2,18.4,2,27.8c0,9.5-0.7,18.7-2,27.8h15.1v-26.7
			l7.9,13.8h8.8l7.9-13.8v26.7h15.1c-1.3-9.1-2-18.4-2-27.8C140.9,565.6,141.6,556.3,142.9,547.2z"/>
		<path class="st0" d="M183.1,547.2H166c1.3,9.1,2,18.4,2,27.8c0,9.5-0.7,18.7-2,27.8h17.1c-1.3-9.1-2-18.4-2-27.8
			C181.1,565.6,181.8,556.3,183.1,547.2z"/>
		<path class="st0" d="M208.2,575.1c0,9.5-0.7,18.7-2,27.8h39.2v-12.2h-24.2v-9.8h20.6v-12.2h-20.6v-9.3h24.2v-12.2h-39.2
			C207.5,556.3,208.2,565.6,208.2,575.1z"/>
		<path class="st0" d="M305,577.6c1.1-0.9,2-1.9,2.9-3.1c0.9-1.2,1.6-2.6,2.1-4.1c0.5-1.6,0.8-3.3,0.8-5.2c0-2.3-0.4-4.5-1.3-6.6
			c-0.8-2.1-2-4-3.6-5.7c-1.6-1.7-3.6-3-5.9-4s-5.1-1.5-8.2-1.5h-23.4c1.3,9.1,2,18.4,2,27.8c0,9.5-0.7,18.7-2,27.8h15.1v-20.7h4.6
			l9.9,20.7h15.9l-12-23.2C302.9,579.2,304,578.5,305,577.6z M295.6,569c-1,1.1-2.5,1.7-4.4,1.7h-7.7v-11.3h7.7
			c1.9,0,3.3,0.6,4.4,1.7c1,1.1,1.6,2.5,1.6,3.9C297.2,566.5,296.7,567.8,295.6,569z"/>
		<path class="st0" d="M445.8,547.2h-15.1v28l-17.8-28h-13.3c1.3,9.1,2,18.4,2,27.8c0,9.5-0.7,18.7-2,27.8h15.1v-28l17.8,28h13.3
			c-1.3-9.1-2-18.4-2-27.8C443.8,565.6,444.5,556.3,445.8,547.2z"/>
		<path class="st0" d="M508.1,559.4v-12.2h-39.2c1.3,9.1,2,18.4,2,27.8c0,9.5-0.7,18.7-2,27.8h39.2v-12.2H484v-9.8h20.6v-12.2H484
			v-9.3H508.1z"/>
	</g>
</g>
</svg>
